<svg width="188" height="36" xmlns="http://www.w3.org/2000/svg"><title>Group 45</title><defs><linearGradient x1="0%" y1="8.158%" x2="17%" y2="8.158%" id="linearGradient-1"><stop stop-color="#EC2024" offset="0%"/><stop stop-color="#924198" offset="100%"/></linearGradient><linearGradient x1="75551%" y1="47325%" x2="75567%" y2="47325%" id="linearGradient-2"><stop stop-color="#EC2024" offset="0%"/><stop stop-color="#924198" offset="100%"/></linearGradient><linearGradient x1="100%" y1="50%" x2="0%" y2="50%" id="linearGradient-3"><stop stop-color="#EB2126" offset="0%"/><stop stop-color="#944095" offset="100%"/></linearGradient><linearGradient x1="0%" y1="78.922%" y2="28.553%" id="linearGradient-4"><stop stop-color="#EB2126" offset="0%"/><stop stop-color="#944095" offset="100%"/></linearGradient></defs><g id="Page-1" fill="none" fill-rule="evenodd"><g id="Landing-Opt-1" transform="translate(-131 -32)"><g id="Group-2" transform="translate(131 32)"><g id="Group-45"><path d="M48.815 25.2V12.6c0-.427.4-.64 1.2-.64h.68c.8 0 1.2.213 1.2.64v10.78h4.46c.4 0 .6.333.6 1V25c0 .667-.2 1-.6 1h-6.74c-.533 0-.8-.267-.8-.8zm11.377.4c0-.053.027-.173.08-.36l4.4-12.86c.107-.28.487-.42 1.14-.42h1.04c.654 0 1.034.14 1.14.42l4.4 12.86c.04.133.06.253.06.36 0 .293-.333.44-1 .44h-.88c-.653 0-1.026-.14-1.12-.42l-.8-2.44h-4.72l-.8 2.44c-.093.28-.4.42-.92.42h-.8c-.813 0-1.22-.147-1.22-.44zm4.6-5.06h3l-1.14-3.56-.3-1.28h-.08c-.12.627-.22 1.053-.3 1.28l-1.18 3.56zM76.91 25.2V12.8c0-.533.267-.8.8-.8h3.96c1.627 0 2.82.313 3.58.94.76.627 1.14 1.493 1.14 2.6a3.02 3.02 0 0 1-.61 1.83 3.536 3.536 0 0 1-1.55 1.21l.02.08a3.26 3.26 0 0 1 1.94 1.18c.507.627.76 1.327.76 2.1 0 1.307-.416 2.31-1.25 3.01-.833.7-2.083 1.05-3.75 1.05h-4.24c-.533 0-.8-.267-.8-.8zm3.08-7.62h1.38c.587 0 1.044-.14 1.37-.42.327-.28.49-.64.49-1.08 0-.987-.606-1.48-1.82-1.48h-1.42v2.98zm0 5.8h1.96c.587 0 1.04-.14 1.36-.42.32-.28.48-.68.48-1.2 0-1.04-.72-1.56-2.16-1.56h-1.64v3.18zm12.417 2.22v-13c0-.4.2-.6.6-.6h3.36c1.6 0 2.803.283 3.61.85.807.567 1.21 1.463 1.21 2.69 0 1.64-.767 2.767-2.3 3.38V19c.387.133.71.393.97.78s.537.96.83 1.72l1.56 3.94c.04.12.06.213.06.28 0 .213-.28.32-.84.32h-.2c-.453 0-.72-.107-.8-.32l-1.52-3.92c-.293-.76-.66-1.277-1.1-1.55-.44-.273-1.067-.41-1.88-.41h-1.8v5.76c0 .293-.267.44-.8.44h-.16c-.533 0-.8-.147-.8-.44zm1.76-7.28h2.64a2.5 2.5 0 0 0 1.81-.73c.5-.487.75-1.093.75-1.82 0-.727-.24-1.283-.72-1.67s-1.14-.58-1.98-.58h-2.5v4.8zm13.517 7.08V12.6c0-.4.2-.6.6-.6h6.98c.267 0 .4.2.4.6v.32c0 .4-.133.6-.4.6h-5.82v4.56h5.22c.267 0 .4.2.4.6V19c0 .4-.133.6-.4.6h-5.22v4.88h5.84c.267 0 .4.2.4.6v.32c0 .4-.133.6-.4.6h-7c-.4 0-.6-.2-.6-.6zM120.88 19c0-4.747 2.16-7.12 6.48-7.12.96 0 1.837.137 2.63.41.793.273 1.19.55 1.19.83 0 .187-.083.427-.25.72-.167.293-.31.44-.43.44-.027 0-.17-.073-.43-.22-.26-.147-.63-.293-1.11-.44-.48-.147-1-.22-1.56-.22-1.613 0-2.8.447-3.56 1.34-.76.893-1.14 2.31-1.14 4.25s.377 3.36 1.13 4.26c.753.9 1.917 1.35 3.49 1.35.6 0 1.167-.083 1.7-.25.533-.167.947-.333 1.24-.5.293-.167.46-.25.5-.25.12 0 .267.147.44.44.173.293.26.507.26.64 0 .307-.417.623-1.25.95-.833.327-1.797.49-2.89.49-2.2 0-3.823-.577-4.87-1.73-1.047-1.153-1.57-2.95-1.57-5.39zm16.257 6.6v-13c0-.4.2-.6.6-.6h3.36c1.6 0 2.803.283 3.61.85.807.567 1.21 1.463 1.21 2.69 0 1.64-.767 2.767-2.3 3.38V19c.387.133.71.393.97.78s.537.96.83 1.72l1.56 3.94c.04.12.06.213.06.28 0 .213-.28.32-.84.32h-.2c-.453 0-.72-.107-.8-.32l-1.52-3.92c-.293-.76-.66-1.277-1.1-1.55-.44-.273-1.067-.41-1.88-.41h-1.8v5.76c0 .293-.267.44-.8.44h-.16c-.533 0-.8-.147-.8-.44zm1.76-7.28h2.64a2.5 2.5 0 0 0 1.81-.73c.5-.487.75-1.093.75-1.82 0-.727-.24-1.283-.72-1.67s-1.14-.58-1.98-.58h-2.5v4.8zm13.237 3.2V12.4c0-.293.267-.44.8-.44h.16c.533 0 .8.147.8.44v9.18c0 .88.35 1.603 1.05 2.17.7.567 1.583.85 2.65.85s1.95-.283 2.65-.85 1.05-1.29 1.05-2.17V12.4c0-.293.267-.44.8-.44h.16c.533 0 .8.147.8.44v9.12c0 1.453-.473 2.583-1.42 3.39-.947.807-2.297 1.21-4.05 1.21-1.753 0-3.1-.403-4.04-1.21-.94-.807-1.41-1.937-1.41-3.39zm17.597 4.08V12.4c0-.293.266-.44.8-.44h.16c.533 0 .8.147.8.44v13.2c0 .293-.267.44-.8.44h-.16c-.534 0-.8-.147-.8-.44zm11.417 0V13.52h-3.84c-.267 0-.4-.2-.4-.6v-.32c0-.4.133-.6.4-.6h9.38c.266 0 .4.2.4.6v.32c0 .4-.134.6-.4.6h-3.78V25.6c0 .293-.267.44-.8.44h-.16c-.534 0-.8-.147-.8-.44z" id="LABRECRUIT" fill="#FFF"/><g id="Group" fill-rule="nonzero"><path d="M.062 20.612c.006 0 .006-.01 0-.013-.006-.004-.012 0-.012.007s.005.009.012.006z" id="_Path_2" fill="url(#linearGradient-1)"/><path d="M34.103 15.335c-.006 0-.006.01 0 .013.007.005.012 0 .012-.007s-.005-.009-.012-.006z" id="_Path_3" fill="url(#linearGradient-2)"/><path d="M8.205 25.494c.393.224 1.03.213 1.414-.026l7.589-4.706c.384-.238.376-.615-.018-.837l-7.45-4.196c-.395-.221-1.04-.221-1.433 0l-7.95 4.477c-.394.222-.395.586 0 .81l7.848 4.478z" id="_Path_4" fill="url(#linearGradient-3)"/><path d="M.806 9.64l-.738.419c-.012.007-.021.385-.021.842v8.863c0 .456.003.832.008.834.005.002.33-.178.724-.4l7.95-4.477 1.435-.807 7.361-4.148c.394-.222.716-.777.716-1.233V.526c0-.457-.321-.647-.714-.423L.806 9.64z" id="_Path_5" fill="url(#linearGradient-4)"/><path d="M25.964 10.458c-.393-.224-1.029-.212-1.414.027l-7.587 4.706c-.384.238-.377.615.018.837l7.45 4.197c.393.222 1.038.222 1.432 0l7.949-4.479c.394-.222.395-.586 0-.81l-7.848-4.478z" id="_Path_6" fill="url(#linearGradient-3)"/><path d="M34.102 15.343c-.004 0-.33.178-.724.4l-7.95 4.477-1.43.807-7.363 4.149c-.394.222-.717.777-.717 1.233v9.007c0 .456.322.646.715.422l16.723-9.536.738-.42c.011-.007.02-.385.02-.842v-8.862c-.005-.457-.008-.832-.012-.835z" id="_Path_7" fill="url(#linearGradient-4)"/></g></g></g></g></g></svg>